<svg width="71" height="61" viewBox="0 0 71 61" fill="none" xmlns="http://www.w3.org/2000/svg">
<path d="M17.275 33.1163H22.3643V22.2209H17.275V33.1163ZM27.8837 44.5852H33.0447V41.9602C33.0447 41.2253 32.795 40.6189 32.2956 40.141C31.7962 39.6631 31.1857 39.4242 30.4642 39.4242C29.7426 39.4242 29.1321 39.6739 28.6327 40.1733C28.1334 40.6726 27.8837 41.2831 27.8837 42.0047V44.5852ZM38.564 33.1163H43.6533V22.2209H38.564V33.1163ZM30.4931 61C26.2462 61 22.2769 60.2095 18.5852 58.6285C14.8935 57.0476 11.6635 54.873 8.89525 52.1048C6.127 49.3365 3.95241 46.108 2.37147 42.4194C0.790491 38.7306 0 34.7608 0 30.5099C0 26.2589 0.790491 22.2858 2.37147 18.5905C3.95241 14.8953 6.12325 11.6742 8.88399 8.92736C11.6447 6.18047 14.8712 4.00586 18.5634 2.40352C22.2556 0.801172 26.2292 0 30.4842 0C34.7391 0 38.717 0.799331 42.4179 2.39799C46.1188 3.99661 49.3409 6.16619 52.0842 8.90672C54.8276 11.6472 56.9994 14.8699 58.5996 18.5748C60.1999 22.2795 61 26.2602 61 30.5168C61 34.7703 60.1988 38.7425 58.5965 42.4334C56.9941 46.1243 54.8195 49.3466 52.0726 52.1002C49.3258 54.8539 46.1042 57.0256 42.4079 58.6153C38.7116 60.2051 34.74 61 30.4931 61ZM30.5 54.262C37.0707 54.262 42.6618 51.9594 47.2732 47.3541C51.8846 42.7487 54.1904 37.1307 54.1904 30.5C54.1904 23.9293 51.8891 18.3382 47.2867 13.7268C42.6842 9.11535 37.0647 6.80964 30.4283 6.80964C23.8576 6.80964 18.2665 9.11086 13.6551 13.7133C9.04367 18.3158 6.73796 23.9353 6.73796 30.5717C6.73796 37.1424 9.04062 42.7334 13.6459 47.3449C18.2513 51.9563 23.8693 54.262 30.5 54.262Z" fill="#E0FBFC"/>
<path d="M27.275 33.1163H32.3643V22.2209H27.275V33.1163ZM37.8837 44.5852H43.0447V41.9602C43.0447 41.2253 42.795 40.6189 42.2956 40.141C41.7962 39.6631 41.1857 39.4242 40.4642 39.4242C39.7426 39.4242 39.1321 39.6739 38.6327 40.1733C38.1334 40.6726 37.8837 41.2831 37.8837 42.0047V44.5852ZM48.564 33.1163H53.6533V22.2209H48.564V33.1163ZM40.4931 61C36.2462 61 32.2769 60.2095 28.5852 58.6285C24.8935 57.0476 21.6635 54.873 18.8952 52.1048C16.127 49.3365 13.9524 46.108 12.3715 42.4194C10.7905 38.7306 10 34.7608 10 30.5099C10 26.2589 10.7905 22.2858 12.3715 18.5905C13.9524 14.8953 16.1232 11.6742 18.884 8.92736C21.6447 6.18047 24.8712 4.00586 28.5634 2.40352C32.2556 0.801172 36.2292 0 40.4842 0C44.7391 0 48.717 0.799331 52.4179 2.39799C56.1188 3.99661 59.3409 6.16619 62.0842 8.90672C64.8276 11.6472 66.9994 14.8699 68.5996 18.5748C70.1999 22.2795 71 26.2602 71 30.5168C71 34.7703 70.1988 38.7425 68.5965 42.4334C66.9941 46.1243 64.8195 49.3466 62.0726 52.1002C59.3258 54.8539 56.1042 57.0256 52.4079 58.6153C48.7116 60.2051 44.74 61 40.4931 61ZM40.5 54.262C47.0707 54.262 52.6618 51.9594 57.2732 47.3541C61.8846 42.7487 64.1904 37.1307 64.1904 30.5C64.1904 23.9293 61.8891 18.3382 57.2867 13.7268C52.6842 9.11535 47.0647 6.80964 40.4283 6.80964C33.8576 6.80964 28.2665 9.11086 23.6551 13.7133C19.0437 18.3158 16.738 23.9353 16.738 30.5717C16.738 37.1424 19.0406 42.7334 23.6459 47.3449C28.2513 51.9563 33.8693 54.262 40.5 54.262Z" fill="#E0FBFC" fill-opacity="0.5"/>
</svg>
