<?xml version="1.0" encoding="UTF-8"?><svg id="Layer_3" xmlns="http://www.w3.org/2000/svg" viewBox="0 0 612 792"><defs><style>.cls-1{letter-spacing:0em;}.cls-2{font-family:Lato-Bold, Lato;font-size:66.82px;font-weight:700;}.cls-3{letter-spacing:.69em;}.cls-4{font-family:Lato-Semibold, Lato;font-size:31.56px;font-weight:600;}.cls-5{letter-spacing:.77em;}.cls-6{letter-spacing:.7em;}</style></defs><g><path d="m139.39,323.49c-.17-18.1,1.28-37.36,4.73-57.86,0,0,156.33-120.06,324.26,0,.48.84,5.3,23.96,4.05,57.86h50.35c3.56-51.22-3.92-87.26-4.61-88.47-219.43-156.87-423.69,0-423.69,0-5.33,31.7-7.04,61.15-5.86,88.47h50.77Z"/><path d="m438.93,447.98c-20.29,44.87-61.52,91.31-132.69,117.5-.71,1.27-86.36-31.55-134.66-117.5h-54.01c59.25,131.22,187.67,180.45,188.67,178.67,104.81-40.92,162.32-112.32,186.09-178.67h-53.4Z"/></g><text transform="translate(31.41 392.71)"><tspan class="cls-2"><tspan x="0" y="0">ANTI-ALLE</tspan><tspan class="cls-1" x="336.99" y="0">R</tspan><tspan x="379.29" y="0">GEN</tspan></tspan><tspan class="cls-4"><tspan class="cls-3" x="3.11" y="35.27">C</tspan><tspan class="cls-6" x="45.71" y="35.27">OMPLETE SEA</tspan><tspan class="cls-5" x="499.25" y="35.27">L</tspan></tspan></text></svg>