<?xml version="1.0" encoding="utf-8"?>
<!-- Generator: Adobe Illustrator 27.4.0, SVG Export Plug-In . SVG Version: 6.00 Build 0)  -->
<svg version="1.1" id="Layer_1" xmlns="http://www.w3.org/2000/svg" xmlns:xlink="http://www.w3.org/1999/xlink" x="0px" y="0px"
	 viewBox="0 0 800 800" style="enable-background:new 0 0 800 800;" xml:space="preserve">
<style type="text/css">
	.st0{fill:#D3E4FF;}
</style>
<g>
	<path class="st0" d="M400,470.3c38.8,0,70.5-31.6,70.5-70.5c0-15.3-5-29.5-13.3-41.1c-12.8-17.7-33.6-29.4-57-29.4
		s-44.2,11.6-57,29.4c-8.3,11.6-13.3,25.8-13.3,41.1C329.7,438.7,361.2,470.3,400,470.3z"/>
	<polygon class="st0" points="553.8,313.9 553.8,254.8 553.8,246.1 545,246.1 485.9,246.3 486.2,314.1 	"/>
	<path class="st0" d="M509.4,400c0,60.3-49.1,109.4-109.4,109.4S290.6,460.3,290.6,400c0-14.5,3-28.4,8.1-41.1h-59.7v163.7
		c0,21.1,17.2,38.3,38.3,38.3h245.3c21.1,0,38.3-17.2,38.3-38.3V358.9h-59.7C506.6,371.6,509.4,385.5,509.4,400z"/>
	<path class="st0" d="M400,0C179.1,0,0,179.1,0,400s179.1,400,400,400s400-179.1,400-400S620.9,0,400,0z M600,358.9v163.7
		c0,42.7-34.7,77.3-77.3,77.3H277.3c-42.7,0-77.3-34.7-77.3-77.3V358.9v-81.7c0-42.7,34.7-77.3,77.3-77.3h245.3
		c42.7,0,77.3,34.7,77.3,77.3V358.9z"/>
</g>
</svg>
