<?xml version="1.0" encoding="utf-8"?>
<!-- Generator: Adobe Illustrator 27.4.0, SVG Export Plug-In . SVG Version: 6.00 Build 0)  -->
<svg version="1.1" id="Layer_1" xmlns="http://www.w3.org/2000/svg" xmlns:xlink="http://www.w3.org/1999/xlink" x="0px" y="0px"
	 viewBox="0 0 800 800" style="enable-background:new 0 0 800 800;" xml:space="preserve">
<style type="text/css">
	.st0{fill:#D3E4FF;}
</style>
<path class="st0" d="M400,0C179.1,0,0,179.1,0,400s179.1,400,400,400s400-179.1,400-400S620.9,0,400,0z M559.7,337.8
	c0.2,3.4,0.2,7,0.2,10.6c0,108.6-82.7,233.9-233.9,233.9c-46.4,0-89.7-13.6-125.9-36.9c6.4,0.8,13,1.1,19.7,1.1
	c38.4,0,73.9-13.1,102-35.2c-35.9-0.6-66.4-24.4-76.7-57c5,0.9,10.2,1.4,15.5,1.4c7.5,0,14.8-0.9,21.7-3
	c-37.7-7.5-65.9-40.8-65.9-80.6v-0.9c11.1,6.1,23.8,9.8,37.2,10.3c-22-14.7-36.6-40-36.6-68.4c0-15,4.1-29.2,11.1-41.4
	c40.6,49.8,101.1,82.5,169.4,85.9c-1.4-5.9-2.2-12.2-2.2-18.8c0-45.3,36.9-82.2,82.2-82.2c23.6,0,45,10,60,25.9
	c18.8-3.7,36.2-10.5,52.2-20c-6.1,19.2-19.2,35.3-36.1,45.5c16.6-2,32.5-6.4,47.2-13C589.7,311.7,575.8,326.1,559.7,337.8z"/>
</svg>
